<svg xmlns="http://www.w3.org/2000/svg" viewBox="0 0 160 42"><radialGradient id="a" cx="22956.066" cy="-48887.953" r="265.168" gradientTransform="matrix(.05863 -.09117 .05367 .03594 1303.6 3872.335)" gradientUnits="userSpaceOnUse"><stop offset=".427" stop-color="#2199ff"/><stop offset=".562" stop-color="#2a89f2"/><stop offset=".822" stop-color="#4361d3"/><stop offset=".918" stop-color="#4e51c6"/></radialGradient><radialGradient id="b" cx="25410.401" cy="60400.711" r="157.004" gradientTransform="matrix(.07982 .04798 .08115 -.14058 -6903.575 7296.574)" gradientUnits="userSpaceOnUse"><stop offset="0" stop-color="#2199ff"/><stop offset=".213" stop-color="#2296fc"/><stop offset=".372" stop-color="#288cf5"/><stop offset=".514" stop-color="#327ce8"/><stop offset=".645" stop-color="#4165d6"/><stop offset=".737" stop-color="#4e51c6"/></radialGradient><radialGradient id="c" cx="22999.188" cy="-48852.414" r="247.018" gradientTransform="matrix(.06735 -.08466 .052 .04308 1021.65 4078.087)" gradientUnits="userSpaceOnUse"><stop offset=".334" stop-color="#2199ff"/><stop offset=".648" stop-color="#475bcd"/><stop offset=".697" stop-color="#4e51c6"/></radialGradient><radialGradient id="d" cx="25915.354" cy="60080.073" r="87.284" gradientTransform="matrix(.08759 .03078 .07354 -.2179 -6659.622 12325.5)" gradientUnits="userSpaceOnUse"><stop offset="0" stop-color="#2199ff"/><stop offset=".291" stop-color="#2296fd"/><stop offset=".424" stop-color="#268ff7"/><stop offset=".525" stop-color="#2e82ed"/><stop offset=".61" stop-color="#3a70de"/><stop offset=".684" stop-color="#4859cc"/><stop offset=".705" stop-color="#4e51c6"/></radialGradient><radialGradient id="e" cx="22866.664" cy="-48953.905" r="332.671" gradientTransform="matrix(.04879 -.09701 .04474 .02342 1090.367 3380.512)" gradientUnits="userSpaceOnUse"><stop offset=".183" stop-color="#2199ff"/><stop offset=".366" stop-color="#2395fc"/><stop offset=".534" stop-color="#2a8af3"/><stop offset=".697" stop-color="#3577e4"/><stop offset=".855" stop-color="#465dcf"/><stop offset=".918" stop-color="#4e51c6"/></radialGradient><radialGradient id="f" cx="27061.698" cy="59403.644" r="151.777" gradientTransform="matrix(.07843 .0503 .06121 -.0994 -5739.482 4577.277)" gradientUnits="userSpaceOnUse"><stop offset="0" stop-color="#4e51c6"/><stop offset=".175" stop-color="#4263d4"/><stop offset=".507" stop-color="#3080eb"/><stop offset=".793" stop-color="#2492f9"/><stop offset="1" stop-color="#2199ff"/></radialGradient><radialGradient id="g" cx="27087.124" cy="59593.159" r="281.499" gradientTransform="matrix(.0525 -.07787 -.04983 -.03498 1568.776 4209.261)" gradientUnits="userSpaceOnUse"><stop offset="0" stop-color="#2199ff"/><stop offset=".132" stop-color="#2394fb"/><stop offset=".283" stop-color="#2c86f0"/><stop offset=".443" stop-color="#3a6fde"/><stop offset=".604" stop-color="#4e51c6"/></radialGradient><path fill="#152031" d="M64.207 15.69a4.462 4.462 0 0 0-2.428-.69 4.84 4.84 0 0 0-3.21 1.15c-1.488 1.303-3.838 4.753-5.64 8.279-1.948.23-3.911.306-5.872.23 1.409-3.143 2.584-6.056 2.584-7.129 0-2.223-1.88-2.453-3.524-2.376a50.1 50.1 0 0 1-3.368 8.815 9.212 9.212 0 0 1-2.428-1.303c-.243.308-.38.684-.391 1.073a2.469 2.469 0 0 0 1.801 2.376 67.771 67.771 0 0 1-5.168 8.892 4.43 4.43 0 0 0 2.663.766c1.722 0 2.427-.613 3.445-2.376 1.018-1.763 2.35-4.369 3.446-6.745 1.99.025 3.98-.103 5.951-.383-1.253 2.76-2.114 5.365-2.114 7.205 0 2.223 2.192 3.526 3.837 3.526.157-7.435 6.422-17.86 10.416-21.31zm3.446 7.052c-5.012 0-10.416 4.906-10.416 9.736 0 1.84 1.097 3.142 3.525 3.142 5.873 0 10.102-6.592 10.102-10.195.078-1.993-1.175-2.683-3.21-2.683zm-4.855 10.272h-.078a.772.772 0 0 1-.705-.92c0-3.22 3.837-7.588 5.952-7.588.548 0 .782.306.782.92-.078 2.606-3.132 7.588-5.951 7.588zM78.852 22.59c-3.681 0-6.735 2.913-6.735 4.83 0 1.916 1.41 3.372 1.41 4.599.108 1.031-.659 1.954-1.714 2.06a2.96 2.96 0 0 1-.166.01 1.755 1.755 0 0 1-1.645-1.304 1.643 1.643 0 0 0-1.253 1.456c0 .767.783 1.303 2.507 1.303 3.523 0 6.264-2.376 6.264-4.215s-1.174-3.143-1.174-4.6c0-1.456.783-2.606 2.114-2.606a1.756 1.756 0 0 1 1.644 1.227 1.544 1.544 0 0 0 1.254-1.457c0-.69-.705-1.303-2.506-1.303zm13.705.613H89.58a22.62 22.62 0 0 1 2.898-3.22 4.437 4.437 0 0 0-5.17.46 18.538 18.538 0 0 0-2.114 2.76h-1.41c-.88-.004-1.606.673-1.644 1.533h2.115c-1.41 2.53-2.663 4.983-2.663 7.513s1.802 3.602 3.524 3.525c-.235-3.065 1.488-7.588 3.524-11.038h2.271c.88.005 1.607-.672 1.645-1.533zm17.464-.92c-.94 3.22-4.307 10.349-6.735 10.349h-.079a.575.575 0 0 1-.39-.537c0-1.84 2.818-6.132 2.818-7.588 0-1.457-1.41-1.917-3.054-1.994-1.41 3.603-6.108 9.889-7.831 9.889h-.157a.437.437 0 0 1-.314-.537c.08-1.916 2.194-5.902 4.621-8.738a3.342 3.342 0 0 0-2.036-.614 4.264 4.264 0 0 0-3.446 1.304c-2.27 2.453-3.837 7.282-3.837 9.735 0 .996.392 1.84 1.8 1.84 3.134 0 5.953-3.067 7.99-5.367a8.08 8.08 0 0 0-.784 3.067c0 1.226.627 2.222 1.958 2.222 5.325 0 11.277-8.355 11.277-11.114a2.142 2.142 0 0 0-1.801-1.916zm4.62.69c-1.252 3.067-4.62 7.206-4.62 10.119-.006 1.763 1.41 3.218 3.21 3.296v-.307c0-4.676 4.7-8.278 4.7-10.808 0-2.146-2.036-2.3-3.29-2.3zm15.794-.076a1.99 1.99 0 0 0-.21 0c-2.349 0-4.385 1.686-6.421 3.603a4.17 4.17 0 0 0 .783-1.917c0-1.916-1.958-1.993-3.132-1.993-1.097 4.293-4.934 7.665-4.934 10.348v.077c.07 1.34 1.236 2.371 2.606 2.303l.057-.004c1.879-4.829 6.656-9.734 8.222-9.734.237.024.41.228.392.46 0 1.61-2.898 5.212-2.898 7.205-.112 1.664 1.174 3.103 2.875 3.213.086.006.172.008.258.006.783-4.752 4.229-8.125 4.229-11.574.057-1.044-.76-1.937-1.827-1.993zm23.207-7.129s-.47-.613-1.958-.613c-2.976 0-4.934 2.76-7.597 7.588h-.783c-6.735 0-11.747 5.366-11.747 10.042 0 1.686.94 2.606 2.35 2.606 2.976 0 5.56-3.296 6.186-3.986-.104.296-.13.612-.078.92 0 2.07 1.096 3.756 3.21 3.756.236-7.052 6.266-16.787 10.417-20.313zm-16.995 16.48c-.235 0-.47-.23-.47-.613 0-2.3 2.898-7.358 6.657-7.358l.627.076c-1.645 2.606-4.777 7.896-6.814 7.896zm18.404-9.658c-3.68 0-6.735 2.913-6.735 4.83 0 1.916 1.331 3.372 1.331 4.599s-.705 2.07-1.8 2.07a1.755 1.755 0 0 1-1.646-1.304 1.643 1.643 0 0 0-1.253 1.456c0 .767.705 1.303 2.507 1.303 3.524 0 6.265-2.376 6.265-4.215s-1.175-3.143-1.175-4.6c0-1.456.783-2.606 2.114-2.606a1.756 1.756 0 0 1 1.645 1.227 1.544 1.544 0 0 0 1.254-1.457c.078-.69-.705-1.303-2.507-1.303zm-37.278-.69c1.168 0 2.116-.926 2.116-2.07s-.948-2.069-2.116-2.069c-1.167 0-2.114.927-2.114 2.07s.947 2.07 2.114 2.07z"/><path fill="url(#a)" d="M38.039 14.291c-2.155-6.72-8.223-4.454-8.54-4.383-9.517 3.43-12.328 27.235-12.328 27.235s-.158 1.227.536 1.264c0 0 .602.103 1.011-1.038a.936.936 0 0 0 .044-.163c.282-1.433 4.343-21.263 13.304-21.719 0 0 2.222-.216 4.384.916l.06.033c.11.066.673.375 1.144-.065.085-.079.174-.202.202-.25.273-.45.454-.849.183-1.83z"/><path fill="url(#b)" d="M18.684 37.01C24.357 2.391 36.51 16.435 36.51 16.435c-.18-.078-1.46-.729-3.123-.921-2.412-.28-5.399.523-8.194 4.738 0 0-3.093 3.858-5.425 12.774l-1.083 3.982z"/><path fill="url(#c)" d="M33.04 22.913c-4.687-.908-10.907 13.834-10.907 13.834-.41.867-.85.686-.85.686-.505-.108-.284-.974-.284-.974s4.038-17.44 10.525-18.085c0 0 4.255-.524 4.35 4.404 0 0 0 1.552-1.293.902 0 0-.816-.623-1.54-.767z"/><path fill="url(#d)" d="M34.581 23.68s-.77-.577-1.505-.716c-4.622-.846-10.978 13.855-10.978 13.855s3.22-10.85 8.042-14.785c0 0 2.98-2.254 4.441 1.646z"/><path fill="url(#e)" d="M27.694 5.589s-1.83-1.938-4.953-.847c0 0-3.246.975-4.38 5.631 0 0-.757 3.032-1.23 5.92-.472 3.14-1.516 6.045-1.516 6.045-2.772 8.494-5.89 8.43-5.89 8.43-2.615 0-4.001-3.537-4.001-3.537-.145-.364-.664-.908-1.225-.516a.77.77 0 0 0-.232.343c-.072.242-.155.774-.028 1.689.945 5.992 4.573 6.967 4.573 6.967 5.704 1.769 7.847-8.555 7.847-8.555.032-.11 2.083-10.233 6.491-15.583 0 0 1.048-1.578 2.876-2.76.19-.123.468-.29.677-.406.192-.107.33-.196.526-.281.35-.176.606-.304.821-.526.307-.318.321-1.371-.356-2.014z"/><path fill="url(#f)" d="M15.632 22.365c-2.636 7.464-5.84 7.172-5.84 7.172s-2.304.112-4.068-2.306c0 0 1.388 3.605 4.004 3.606 0 0 3.518.282 5.904-8.472z"/><path fill="url(#g)" d="M17.788 22.776C20.6 2.591 27.573 7.948 27.573 7.948a7.631 7.631 0 0 1-.344.18c-2.407 1.13-4.08 3.392-4.079 3.391-2.2 2.371-5.362 11.257-5.362 11.257z"/></svg>