<svg xmlns="http://www.w3.org/2000/svg" viewBox="0 0 256 256"><linearGradient id="a" x1="127.805" x2="194.473" y1="260.572" y2="83.407" gradientUnits="userSpaceOnUse"><stop offset="0" stop-color="#e2e3f3"/><stop offset=".257" stop-color="#fffefe"/><stop offset=".751" stop-color="#fffefe"/><stop offset=".904" stop-color="#fffefe"/></linearGradient><linearGradient id="b" x1="-208218.512" x2="-216015.476" y1="-40950.055" y2="-21319.616" gradientTransform="matrix(.0168 .0005 .0005 -.0168 3738.926 -285.725)" gradientUnits="userSpaceOnUse"><stop offset=".461" stop-color="#fffefe"/><stop offset=".662" stop-color="#d5d7e8"/><stop offset="1" stop-color="#515d71"/></linearGradient><linearGradient id="c" x1="96.159" x2="321.278" y1="401.399" y2="-196.828" gradientUnits="userSpaceOnUse"><stop offset="0" stop-color="#e2e3f3"/><stop offset=".396" stop-color="#fffefe"/><stop offset=".879" stop-color="#fffefe"/></linearGradient><linearGradient id="d" x1="-210960.005" x2="-211459.019" y1="-39381.809" y2="-22952.3" gradientTransform="matrix(.0168 .0004 .0004 -.0168 3738.763 -285.798)" gradientUnits="userSpaceOnUse"><stop offset=".391" stop-color="#eeeefe"/><stop offset=".509" stop-color="#e4e4f5"/><stop offset=".652" stop-color="#d2d4e5"/><stop offset=".965" stop-color="#515d71"/></linearGradient><linearGradient id="e" x1="32.198" x2="145.627" y1="269.747" y2="-31.678" gradientUnits="userSpaceOnUse"><stop offset=".293" stop-color="#fffefe"/><stop offset=".767" stop-color="#fffefe"/><stop offset=".875" stop-color="#eeeefe"/></linearGradient><linearGradient id="f" x1="25.314" x2="152.28" y1="136.789" y2="208.208" gradientUnits="userSpaceOnUse"><stop offset=".148" stop-color="#fffefe"/><stop offset=".662" stop-color="#c5c8d9"/><stop offset="1" stop-color="#757e91"/></linearGradient><linearGradient id="g" x1="-211515.84" x2="-218584.99" y1="-24282.375" y2="-18756.383" gradientTransform="matrix(.0168 0 0 -.0168 3738.596 -284.984)" gradientUnits="userSpaceOnUse"><stop offset=".324" stop-color="#fffefe"/><stop offset=".716" stop-color="#d2d4e5"/><stop offset="1" stop-color="#657083"/></linearGradient><path fill="url(#a)" d="M183.802 53.552c-64.959 22.524-84.147 178.883-84.147 178.883s-1.076 7.23 3.656 7.466c0 0 5.61 1.356 6.906-5.982.065-.366.226-.707.3-1.071 1.924-9.41 29.465-140.412 90.8-142.65 0 0 15.168-1.424 29.927 6.011.136.07.27.142.403.218.755.436 4.595 2.466 7.813-.424a9.517 9.517 0 0 0 1.379-1.638c1.859-2.956 3.098-5.58 1.248-12.024 0 0-11.322-42.862-58.285-28.79z"/><path fill="url(#b)" d="M110.594 231.651C149.31 4.28 231.647 96.427 231.647 96.427a57.005 57.005 0 0 0-19.704-5.878c-16.466-1.836-35.376 1.847-55.637 28.927 0 0-22.992 26.898-38.91 85.46l-6.802 26.715z"/><path fill="url(#c)" d="M210.032 138.968c-31.993-5.958-74.447 90.869-74.447 90.869-2.797 5.69-5.808 4.505-5.808 4.505-3.442-.712-1.936-6.402-1.936-6.402s27.565-114.546 71.842-118.784c0 0 29.038-3.437 29.684 28.925 0 0 0 10.196-8.82 5.928 0 0-5.567-4.093-10.515-5.041z"/><path fill="url(#d)" d="M220.548 144.01s-5.498-4.128-10.516-5.042c-31.225-5.279-74.19 90.289-74.19 90.289s21.485-71.049 54.395-96.892c0 0 20.216-14.56 30.31 11.644z"/><path fill="url(#e)" d="M173.537 23.75s-12.49-12.726-33.801-5.563c0 0-22.156 6.403-29.899 36.988 0 0-5.162 19.915-8.39 38.883-3.225 20.627-10.35 39.703-10.35 39.703-18.918 55.786-40.196 55.37-40.196 55.37-17.853 0-27.317-23.234-27.317-23.234-.988-2.393-4.529-5.963-8.355-3.392a5.067 5.067 0 0 0-1.59 2.257c-.485 1.586-1.058 5.081-.19 11.09 6.453 39.357 31.214 45.761 31.214 45.761 38.932 11.619 53.56-56.19 53.56-56.19.216-.722 18.438-70.932 43.942-102.793a86.674 86.674 0 0 1 19.99-17.681c2.954-1.88 12.1-6.554 13.817-7.971 2.283-1.885 3.307-8.039-2.435-13.228z"/><path fill="url(#f)" d="M91.412 132.891c-17.996 49.024-40.064 47.797-40.064 47.797s-15.72 1.094-27.764-14.791c0 0 9.48 23.323 27.333 23.326 0 0 24.205 1.166 40.495-56.332z"/><path fill="url(#g)" d="M106.978 136.48c19.192-132.578 66.009-97.625 66.009-97.625-4.484 2.204-11.748 6.703-12.101 6.921-9.895 6.1-18.461 16.524-18.453 16.519-14.07 15.682-35.455 74.185-35.455 74.185z"/></svg>